# xmcd
#
# Track frame offsets: 
#        150
#        23067
#        41312
#        49120
#        70035
#        85682
#        100295
#        131665
#        144340
#        159547
#        181387
#
# Disc length: 2743 seconds
#
# Revision: 0
# Processed by: cddbd v1.5.2PL0 Copyright (c) Steve Scherf et al.
# Submitted via: ExactAudioCopy v0.95a3
#
DISCID=870ab50b
DTITLE=Zola Moon - Almost Crazy
DYEAR=1998
DGENRE=Blues
TTITLE0=Hollywood to the Hood
TTITLE1=Bad Dog Fight
TTITLE2=Comin' Back to Me
TTITLE3=The Well
TTITLE4=Love With a Thug
TTITLE5=On the Run
TTITLE6=Long Long Road
TTITLE7=Rockabilly Billie
TTITLE8=Bus Stop
TTITLE9=Alley Cat
TTITLE10=I'm Mad
EXTD=
EXTT0=
EXTT1=
EXTT2=
EXTT3=
EXTT4=
EXTT5=
EXTT6=
EXTT7=
EXTT8=
EXTT9=
EXTT10=
PLAYORDER=
